<svg height="35.848913" viewBox="0 0 302.000069 35.8489127" width="302.000069" xmlns="http://www.w3.org/2000/svg"><g fill="#fff" fill-rule="evenodd"><path d="m148.827407 13.249398h-6.619002v-13.249398h-.985314v14.1222989h7.604316z"/><path d="m156.580151 14.6659429c-3.729284 0-4.704794-2.8177979-4.704794-6.40522061 0-3.67160041.97551-6.38389254 4.704794-6.38389254 3.72744 0 4.638685 2.71229213 4.638685 6.38389254 0 3.58742271-.911245 6.40522061-4.638685 6.40522061m5.678461-6.40522061c0-4.10020337-1.257222-7.1743916-5.657039-7.1743916-4.269673 0-5.765993 3.07418823-5.765993 7.1743916 0 4.09861511 1.300066 7.19571961 5.744571 7.19571961 4.226828 0 5.678461-3.0971045 5.678461-7.19571961"/><path d="m167.133608 2.45332229 7.435302 12.66091791h1.387598v-13.81331307h-.954089v12.66091797l-7.392688-12.66091797h-1.342911v13.81331307h.866788z"/><path d="m183.757528 14.3254656h-2.038552v-12.23594532h1.842298c4.400048 0 5.657271 1.7938248 5.657271 6.08552679 0 3.97200823-1.603431 6.15041853-5.461017 6.15041853m6.500793-6.17151968c0-4.95400589-1.690731-6.85310955-6.697047-6.85310955h-2.841073v13.81331313h2.841073c4.811905 0 6.697047-1.9850965 6.697047-6.96020358"/><path d="m199.252367 14.6659429c-3.729283 0-4.702951-2.8177979-4.702951-6.40522061 0-3.67160041.973668-6.38389254 4.702951-6.38389254 3.729284 0 4.638685 2.71229213 4.638685 6.38389254 0 3.58742271-.909401 6.40522061-4.638685 6.40522061m5.678462-6.40522061c0-4.10020337-1.257222-7.1743916-5.65704-7.1743916-4.269672 0-5.765993 3.07418823-5.765993 7.1743916 0 4.09861511 1.300067 7.19571961 5.744571 7.19571961 4.226828 0 5.678462-3.0971045 5.678462-7.19571961"/><path d="m218.628701 15.1141949v-13.81331315h-.954088v12.66091795l-7.392458-12.66091795h-1.343141v13.81331315h.866788v-12.66091799l7.435302 12.66091799z"/><path d="m242.988777 1.30088175-3.338619 12.40452765-3.381462-11.82821662h-1.039777l-3.42615 11.78601432-3.315353-12.36232535h-1.04162l3.729283 13.81331315h1.084464l3.424077-11.65781915 3.381462 11.65781915h1.039777l3.814972-13.81331315z"/><path d="m254.970695 14.3254656h-6.654203v-5.9589199h6.005091v-.78868391h-6.005091v-5.48811461h6.459792v-.78891081h-7.456724v13.81331313h7.651135z"/><path d="m260.51816 10.0337182 2.926762-7.28171251 2.666242 7.28171251zm8.605223 5.0806128-5.288027-13.81354001h-.672376l-5.701727 13.81354001h1.020197l1.733576-4.3341312h6.156427l1.624853 4.3341312z"/><path d="m273.478145 1.30088175h-.996932v13.81331315h7.693749v-.8538025h-6.696817z"/><path d="m280.022381 2.11107522h4.291095v13.00352808h.998775v-13.00352808h4.290864v-.81160021h-9.580734z"/><path d="m301.003137 1.30088175v6.27679852h-7.196435v-6.27679852h-.998545v13.81331315h.998545v-6.72650267h7.196435v6.72650267h.996932v-13.81331315z"/><path d="m148.018393 33.8255618-5.115038-12.3639136h-1.364333v13.8149014h.866788v-12.7469108l5.288027 12.7469108h.542232l5.202339-12.7469108v12.7469108h.954088v-13.8149014h-1.257222z"/><path d="m160.804791 30.1941897 2.926762-7.2817125 2.666241 7.2817125zm2.644819-8.7329272-5.701726 13.8153552h1.020197l1.733576-4.3357195h6.156427l1.624853 4.3357195h1.12892l-5.28987-13.8153552z"/><path d="m181.503419 34.1242452-7.392457-12.6627331h-1.342911v13.8151282h.866788v-12.6627331l7.435302 12.6627331h1.387367v-13.8151282h-.954089z"/><path d="m188.870033 30.1941897 2.926762-7.2817125 2.666242 7.2817125zm2.64482-8.7329272-5.701727 13.8153552h1.020197l1.733576-4.3357195h6.156427l1.624853 4.3357195h1.12892l-5.28987-13.8153552z"/><path d="m205.472393 29.5330884h3.099751v4.2917019c-.890053.4689902-2.038553 1.0030989-3.099751 1.0030989-3.772128 0-4.617494-3.1374917-4.617494-6.4682972 0-4.0160256 1.343141-6.3226311 4.769061-6.3226311.952476 0 1.840685.2373312 2.687664.5974122l.390664-.8960048c-.998775-.2563904-2.125852-.4900913-3.099751-.4900913-4.22844 0-5.789027 2.8618153-5.789027 7.111315 0 3.7349039 1.150342 7.2587962 5.593004 7.2587962 1.560356 0 2.621555-.4919064 4.075031-1.1750845v-5.7007144h-4.009152z"/><path d="m214.486064 28.5290139h6.00486v-.7889108h-6.00486v-5.4878878h6.459791v-.7907259h-7.456724v13.8151283h7.651135v-.7904991h-6.654202z"/><path d="m231.520873 33.8255618-5.115038-12.3639136h-1.366175v13.8149014h.866787v-12.7469108l5.28987 12.7469108h.542232l5.202339-12.7469108v12.7469108h.954088v-13.8149014h-1.259065z"/><path d="m243.656524 28.5290139h6.00486v-.7889108h-6.00486v-5.4878878h6.459791v-.7907259h-7.456724v13.8151283h7.652748v-.7904991h-6.655815z"/><path d="m262.947953 34.1242452-7.392458-12.6627331h-1.344754v13.8151282h.8684v-12.6627331l7.43369 12.6627331h1.387598v-13.8151282h-.952476z"/><path d="m267.104871 22.2734753h4.292707v13.0035281h.997163v-13.0035281h4.290864v-.8134153h-9.580734z"/><path d="m25.5500834 27.1182544c-.5689518 0-.8276291.2563903-.984494.664119-.6742194 1.735513-1.5016182 3.5749436-2.7982295 4.4918226-1.0363216.7659945-2.8500571.9207363-5.5983017.9207363-4.3516753 0-6.63278056-.3058532-7.307-1.4301135-.36187179-.5620167-.46713939-1.7865642-.46713939-2.7052584v-20.01296769c0-3.01292682.20869245-4.39017404.67421943-4.8995513.51896699-.61329477 1.29638096-.86968511 2.69480466-.86968511.1568648 0 .7258167.05263943.8808388.05263943.6226222 0 .7776442-.51119241.7776442-1.02238483 0-.5622436-.2584469-.86786996-.8292415-.86786996-.5171242 0-2.2276652.30562636-5.44143686.30562636-3.21377163 0-5.80515143-.30562636-6.37410326-.30562636-.46713939 0-.77764428.30562636-.77764428.96974541s.36210214.92050938.67237668.92050938c.1570952 0 .77764428-.05263943 1.03816433-.05263943 1.29476852 0 2.27926249.35826579 2.69480464 1.02238484.36187179.66230389.46529664 1.88843964.46529664 4.54310066v19.3470334c0 2.6562493-.2068497 3.7789214-.51712424 4.3409381-.36371455.6114796-1.19318643 1.0207965-2.53955219 1.0207965-.25867729 0-.93289673-.0510511-1.14158918-.0510511-.41369939 0-.67237668.3582658-.67237668.9697454 0 .7149433.46552698.9186942.72420427.9186942.57056425 0 4.87248505-.2037509 8.03442909-.2037509 6.63462334 0 9.74312734.2037509 14.71903724.2037509.7776443 0 1.2966113-.458553 1.6068858-1.326196.518967-1.5830402 1.4518637-5.6655458 1.4518637-6.3296649 0-.4093169-.4673697-.614883-.9863367-.614883"/><path d="m73.6497548 1.43951405c-.5707946 0-2.6948046.30562636-4.872485.30562636-2.1240101 0-5.2861845-.30562636-5.7533238-.30562636-.5689519 0-.8294719.40931697-.8294719 1.02238484 0 .45855298.1570952.86786995.7776443.86786995.1052676 0 .7776442-.05105117.9844939-.05105117 2.3845301 0 3.0587496.45855298 3.0587496 1.58122501 0 .71675848-.1036552 2.04295453-.8810692 4.85031529l-4.872485 17.86791073c-.2068497.7167585-.4136994 1.1753115-.6207794 1.1753115-.2602897 0-.3637146-.2055661-.6739891-1.073436l-7.9809891-22.35996027c-.5707946-1.63363756-.8294719-2.50150751-1.0381643-2.9600605-.258447-.51119241-.4136994-.76599449-.984494-.76599449-.5687215 0-.9326664.35667753-1.1913437 1.07162085-.2068497.71494333-.5705642 1.83761536-.984494 2.96028739l-7.8791766 21.90299552c-.3621021.9697454-.465527 1.326423-.6723767 1.326423-.26052 0-.3639449-.3566776-.6742194-1.4809379l-5.0277375-17.96978619c-.7258167-2.65443414-.8808388-3.77869443-.8808388-4.49204949 0-1.07162086.8808388-1.63386445 2.9016544-1.63386445.2086924 0 .8826815.05105117 1.0379339.05105117.6205491 0 .7758016-.35849269.7758016-.81681878 0-.61306787-.0515973-1.02079658-.8276292-1.02079658-.5705642 0-3.4206213.25298693-6.4275432.25298693-2.1776804 0-4.6637926-.30562636-5.2343569-.30562636-.4673697 0-.8294718.35826579-.8294718 1.02238484 0 .61147961.2586773.86786995.7776442.86786995.2586773 0 .7258167-.05105117 1.0360913-.05105117.8294718 0 1.5034609.2039778 1.9689879.81523052.4673698.66411904.9345092 1.89025479 1.7103107 4.64656437 2.4363577 8.27074394 5.856979 20.21671854 6.8433157 23.48422054.5171243 1.6849156.7758016 2.4506832.931054 2.858412.2084621.5111924.518967.7657676 1.1413588.7657676.5171243 0 .8292416-.4075019 1.0879189-.9697454.3102745-.7149434.8292415-2.194066 1.0879188-2.8581851.9326664-2.6544341 6.375946-17.7149841 7.9310042-21.7995318.3102746-.76599451.465527-1.07320913.6723767-1.07320913.2605201 0 .3121173.10187545.6223918 1.02238483 3.0053096 8.2196928 6.6862206 18.5320298 7.9812195 21.9522316.6739891 1.7357399.9326663 2.6544341 1.0895312 3.0129268.2586773.5604284.5689518.7131282 1.1913437.7131282.6223918 0 .9328967-.4075019 1.1397464-.9697454.2602897-.6638922.7258167-2.194066.9326664-2.8581851.7776443-2.7070736 5.4948769-18.4299275 6.9467406-23.28046964.8273988-2.85818504 1.1913436-4.08432078 1.7103106-4.6958004.465527-.61306787 1.1913437-.76599449 1.9171604-.76599449.3102745 0 .7258167.05105117 1.0363216.05105117.4671394 0 .7258167-.35849269.7258167-.92050938 0-.71335507-.2586773-.96974541-.8810692-.96974541"/><path d="m119.20893 33.501852c-.20685 0-.517125.049236-.777645.049236-1.501618 0-2.330859-.3058533-2.798229-.8662817-.413699-.5111924-.622392-1.9392639-.725817-4.8010793-.517354-16.9474014-.620779-19.50177519-.620779-20.21490336 0-1.94130597.051827-2.91105137.620779-3.52230409.518967-.56224359 1.451634-.7659945 2.487955-.7659945.26029 0 1.036091.05105117 1.296611.05105117.361872 0 .67399-.35667753.67399-1.02079657 0-.61306788-.258447-.97156056-.725817-.97156056-.570795 0-2.643208.25661723-4.613808.25661723-1.553446 0-3.420621-.20375091-3.834551-.20375091-.881069 0-1.087919.30562636-1.244784.76576761-.827629 2.49991925-1.294768 4.03190825-2.33109 6.38071602-3.213771 7.30099856-5.960173 13.73412706-8.3447034 18.93953166-.1552524.4093169-.2068497.5620167-.4139297.5620167-.2068497 0-.3102746-.2037509-.4155422-.4601413-1.0360912-2.5509704-3.2653688-8.9332747-6.9964951-18.68314127-.9326663-2.39963205-1.5034609-4.13718711-2.2811052-6.79162124-.1550221-.45855299-.3618718-.71312818-.984494-.71312818-.5171242 0-2.3826873.20375091-4.0411704.20375091-1.7121534 0-4.3019208-.25661723-4.872485-.25661723-.5707946 0-.7776443.30744151-.7776443 1.02261173 0 .50937727.2068497.86764306.6223918.86764306.3102746 0 1.0363216-.05082428 1.3981934-.05082428.9328967 0 1.6587134.2037509 2.1776804.7659945.5689518.5620167.7258167 1.83738846.7258167 3.42042863 0 1.17349631-.8292416 14.39643097-1.1413589 20.72609577-.1552524 2.7054854-.4655269 3.8297456-.9326663 4.3917623-.465527.6114797-1.2949989.9681572-2.7466323.9681572-.2068497 0-.6223918-.049236-.8292415-.049236-.465527 0-.6742194.458553-.6742194.9171059 0 .6638922.2086924.9695186.7776442.9695186.4671394 0 2.2292777-.3056264 4.9240823-.3056264 3.2137717 0 5.7517115.3056264 6.1672536.3056264.4673697 0 .7776443-.4075019.7776443-.9695186 0-.6114796-.3102746-.9171059-.7776443-.9171059-.1550221 0-.7258167.049236-.9326664.049236-1.4518637 0-2.1758376-.3058533-2.6432074-.8662817-.4155421-.5111924-.5705642-1.686277-.5705642-4.5446889 0-4.2354323.5705642-14.854984.7774139-21.85035613 0-.35667754.2086925-.45855299.4155422-.45855299.1552524 0 .3105049.20375091.465527.56042844 2.6948046 6.73875488 5.3896092 13.98892918 8.8620582 23.17859418.4673697 1.2243206 1.0379339 2.9092362 1.5034609 4.5428738.2086925.8186339.518967 1.1242603 1.1415892 1.1242603.7258167 0 .984494-.4075018 1.1913437-.9697454.7258167-1.7881525 1.2963809-3.3183263 2.0724132-5.0558814 3.058519-6.993557 6.894682-15.8247293 9.693142-22.71641087.103425-.30744152.258447-.46036814.413699-.46036814.258678 0 .312118.15292662.312118.40931696.413699 10.71961195.672376 19.34726035.672376 21.43945085 0 2.7599399-.103424 4.0843208-.413699 4.6465644-.415542.6641191-1.710541 1.0207966-2.955325 1.0207966-.206849 0-.777644-.049236-.932666-.049236-.465527 0-.829472.4075018-.829472.8678699 0 .6638922.363945 1.0187546.881069 1.0187546.415542 0 2.696648-.3056264 5.908807-.3056264 3.213771 0 5.649899.3056264 6.168866.3056264.465527 0 .775801-.3056264.775801-.9168791 0-.5622436-.258447-.9697454-.725816-.9697454"/></g></svg>